<svg width="46" height="55" viewBox="0 0 46 55" fill="none" xmlns="http://www.w3.org/2000/svg">
<g clip-path="url(#clip0)">
<path d="M31.7688 19.9787C31.2 19.9238 30.6269 19.9238 30.0581 19.9787C28.8323 20.1244 27.6705 20.5848 26.6961 21.3111C25.7217 22.0374 24.9711 23.0024 24.5237 24.1038C24.0961 25.2364 23.9813 26.4554 24.1903 27.6429C24.3993 28.8304 24.9251 29.9462 25.7169 30.8825L30.9062 37.2488L36.0956 30.8825C36.8874 29.9462 37.4132 28.8304 37.6222 27.6429C37.8312 26.4554 37.7164 25.2364 37.2888 24.1038C36.8426 23.0042 36.0941 22.0405 35.1224 21.3144C34.1508 20.5883 32.992 20.1268 31.7688 19.9787V19.9787ZM33.8244 29.2463L30.9494 32.8213L28.0744 29.2463C27.5808 28.6828 27.2485 28.0066 27.1099 27.2836C26.9713 26.5605 27.0312 25.8155 27.2837 25.1213C27.529 24.4721 27.9566 23.9001 28.5196 23.4684C29.0827 23.0366 29.7592 22.7616 30.475 22.6737H30.9925H31.51C32.2258 22.7616 32.9023 23.0366 33.4654 23.4684C34.0284 23.9001 34.456 24.4721 34.7012 25.1213C34.9423 25.8224 34.9882 26.5716 34.8344 27.2949C34.6807 28.0182 34.3325 28.6908 33.8244 29.2463V29.2463ZM30.9494 25.4513C31.318 25.4689 31.6655 25.6215 31.9197 25.8775C32.1739 26.1335 32.3155 26.4732 32.315 26.8263C32.315 27.1909 32.1635 27.5407 31.894 27.7985C31.6244 28.0564 31.2587 28.2013 30.8775 28.2013C30.4963 28.2013 30.1306 28.0564 29.861 27.7985C29.5915 27.5407 29.44 27.1909 29.44 26.8263C29.4395 26.6373 29.4798 26.4503 29.5582 26.2768C29.6367 26.1034 29.7516 25.9473 29.896 25.8183C30.0403 25.6893 30.2109 25.5901 30.3971 25.5269C30.5833 25.4638 30.7811 25.438 30.9781 25.4513H30.9494ZM35.9375 2.75H10.0625C8.15626 2.75 6.32809 3.47433 4.98017 4.76364C3.63225 6.05295 2.875 7.80164 2.875 9.625V34.375C2.875 36.1984 3.63225 37.947 4.98017 39.2364C6.32809 40.5257 8.15626 41.25 10.0625 41.25H35.9375C37.8437 41.25 39.6719 40.5257 41.0198 39.2364C42.3677 37.947 43.125 36.1984 43.125 34.375V9.625C43.125 7.80164 42.3677 6.05295 41.0198 4.76364C39.6719 3.47433 37.8437 2.75 35.9375 2.75V2.75ZM10.0625 5.5H35.9375C37.0812 5.5 38.1781 5.9346 38.9869 6.70818C39.7956 7.48177 40.25 8.53098 40.25 9.625V16.2662L5.75 11.1925V9.625C5.75 8.53098 6.20435 7.48177 7.0131 6.70818C7.82185 5.9346 8.91875 5.5 10.0625 5.5V5.5ZM5.75 34.375V13.9838L19.8806 16.06L14.6625 38.5H10.0625C8.91875 38.5 7.82185 38.0654 7.0131 37.2918C6.20435 36.5182 5.75 35.469 5.75 34.375V34.375ZM35.9375 38.5H17.6094L22.7269 16.5L40.25 19.0575V34.375C40.25 35.469 39.7956 36.5182 38.9869 37.2918C38.1781 38.0654 37.0812 38.5 35.9375 38.5V38.5Z" fill="#EA81FD"/>
</g>
<defs>
<clipPath id="clip0">
<rect width="46" height="55" fill="white"/>
</clipPath>
</defs>
</svg>
