<svg width="46" height="56" viewBox="0 0 46 56" fill="none" xmlns="http://www.w3.org/2000/svg">
<g clip-path="url(#clip0)">
<path d="M32.7261 29.6814C31.9355 28.9128 30.6202 28.8064 29.7016 29.4448L25.9397 32.0838C20.953 31.122 17.8523 28.2142 17.5016 27.874C16.2021 26.6098 13.869 23.4808 13.0525 19.5328L15.7622 15.869C16.4349 14.9576 16.3329 13.7186 15.5178 12.922L10.8459 8.37205C10.097 7.64265 8.86507 7.50265 7.96807 8.03605L2.52713 11.263C1.99382 11.5794 1.61863 12.0792 1.47201 12.6658C1.37713 13.0368 -0.723053 21.896 10.8287 34.1026C10.8632 34.1432 10.9308 34.209 10.9696 34.244C20.0172 42.3626 27.2306 43.575 30.7251 43.575C32.0031 43.575 32.7779 43.414 32.9834 43.3664C33.5886 43.2222 34.1004 42.8582 34.431 42.336L37.7444 37.037C38.3094 36.1354 38.1671 34.9846 37.4009 34.237L32.7261 29.6814ZM32.1871 40.81C31.9528 40.8492 31.4539 40.915 30.7251 40.915C27.6288 40.915 21.1873 39.7936 12.8441 32.3092C3.09495 22.0052 3.9057 14.5656 4.09688 13.447L9.12813 10.4622L13.3515 14.5754L10.4952 18.438C10.2839 18.725 10.1976 19.082 10.2551 19.4306C11.2628 25.4212 15.1326 29.33 15.5681 29.7556C17.4814 31.6218 21.3728 34.0634 26.0446 34.8068C26.4054 34.8656 26.7691 34.7802 27.0624 34.573L31.0284 31.7912L35.2518 35.9058L32.1871 40.81Z" fill="#EA81FD"/>
<path d="M33.6375 25.4534H36.3687C36.3687 16.5872 28.9642 9.37439 19.8605 9.37439V12.0344C27.4577 12.0344 33.6375 18.0544 33.6375 25.4534Z" fill="#EA81FD"/>
<path d="M20.3593 1.22498V3.88498C32.2949 3.88498 42.0052 13.342 42.0052 24.9676H44.7364C44.7364 11.8762 33.8014 1.22498 20.3593 1.22498Z" fill="#EA81FD"/>
</g>
<defs>
<clipPath id="clip0">
<rect width="46" height="56" fill="white"/>
</clipPath>
</defs>
</svg>
