<svg width="46" height="55" viewBox="0 0 46 55" fill="none" xmlns="http://www.w3.org/2000/svg">
<path d="M39.1 39.996H36.524V25.784C36.524 25.388 36.202 25.124 35.834 25.124H30.866V12.188C30.866 11.792 30.544 11.528 30.176 11.528H28.198V9.89998C28.198 9.50398 27.876 9.23998 27.508 9.23998H26.036C25.852 8.18398 24.84 7.30398 23.598 7.12798V5.10398H26.496C26.772 5.10398 27.048 4.88398 27.048 4.57598V2.55198C27.048 2.28798 26.818 2.02398 26.496 2.02398H23.598V1.62798C23.598 1.31998 23.322 1.09998 23.046 1.09998C22.77 1.09998 22.494 1.36398 22.494 1.62798V7.03998C21.206 7.25998 20.24 8.09598 20.056 9.15198H18.722C18.308 9.15198 18.032 9.45998 18.032 9.81198V11.44H16.054C15.64 11.44 15.364 11.748 15.364 12.1V25.08H10.304C9.89002 25.08 9.61402 25.388 9.61402 25.74V39.996H6.90002C6.76202 39.996 6.62402 40.128 6.62402 40.26V42.592C6.62402 42.724 6.76202 42.856 6.90002 42.856H39.1C39.238 42.856 39.376 42.724 39.376 42.592V40.26C39.376 40.128 39.284 39.996 39.1 39.996ZM15.962 39.072C15.962 39.204 15.824 39.336 15.686 39.336H13.432C13.294 39.336 13.156 39.204 13.156 39.072V35.552C13.156 35.42 13.294 35.288 13.432 35.288H15.686C15.824 35.288 15.962 35.42 15.962 35.552V39.072ZM15.962 32.296C15.962 32.428 15.824 32.56 15.686 32.56H13.432C13.294 32.56 13.156 32.428 13.156 32.296V28.776C13.156 28.644 13.294 28.512 13.432 28.512H15.686C15.824 28.512 15.962 28.644 15.962 28.776V32.296ZM21.666 39.072C21.666 39.204 21.528 39.336 21.39 39.336H19.136C18.998 39.336 18.86 39.204 18.86 39.072V35.552C18.86 35.42 18.998 35.288 19.136 35.288H21.39C21.528 35.288 21.666 35.42 21.666 35.552V39.072ZM21.666 32.296C21.666 32.428 21.528 32.56 21.39 32.56H19.136C18.998 32.56 18.86 32.428 18.86 32.296V28.776C18.86 28.644 18.998 28.512 19.136 28.512H21.39C21.528 28.512 21.666 28.644 21.666 28.776V32.296ZM21.666 25.476C21.666 25.608 21.528 25.74 21.39 25.74H19.136C18.998 25.74 18.86 25.608 18.86 25.476V21.956C18.86 21.824 18.998 21.692 19.136 21.692H21.39C21.528 21.692 21.666 21.824 21.666 21.956V25.476ZM21.666 18.7C21.666 18.832 21.528 18.964 21.39 18.964H19.136C18.998 18.964 18.86 18.832 18.86 18.7V15.18C18.86 15.048 18.998 14.916 19.136 14.916H21.39C21.528 14.916 21.666 15.048 21.666 15.18V18.7ZM27.324 39.072C27.324 39.204 27.186 39.336 27.048 39.336H24.794C24.656 39.336 24.518 39.204 24.518 39.072V35.552C24.518 35.42 24.656 35.288 24.794 35.288H27.048C27.186 35.288 27.324 35.42 27.324 35.552V39.072ZM27.324 32.296C27.324 32.428 27.186 32.56 27.048 32.56H24.794C24.656 32.56 24.518 32.428 24.518 32.296V28.776C24.518 28.644 24.656 28.512 24.794 28.512H27.048C27.186 28.512 27.324 28.644 27.324 28.776V32.296ZM27.324 25.476C27.324 25.608 27.186 25.74 27.048 25.74H24.794C24.656 25.74 24.518 25.608 24.518 25.476V21.956C24.518 21.824 24.656 21.692 24.794 21.692H27.048C27.186 21.692 27.324 21.824 27.324 21.956V25.476ZM27.324 18.7C27.324 18.832 27.186 18.964 27.048 18.964H24.794C24.656 18.964 24.518 18.832 24.518 18.7V15.18C24.518 15.048 24.656 14.916 24.794 14.916H27.048C27.186 14.916 27.324 15.048 27.324 15.18V18.7ZM33.028 39.072C33.028 39.204 32.89 39.336 32.752 39.336H30.498C30.36 39.336 30.222 39.204 30.222 39.072V35.552C30.222 35.42 30.36 35.288 30.498 35.288H32.752C32.89 35.288 33.028 35.42 33.028 35.552V39.072ZM33.028 32.296C33.028 32.428 32.89 32.56 32.752 32.56H30.498C30.36 32.56 30.222 32.428 30.222 32.296V28.776C30.222 28.644 30.36 28.512 30.498 28.512H32.752C32.89 28.512 33.028 28.644 33.028 28.776V32.296Z" fill="#EA81FD"/>
</svg>
