<svg width="1186" height="290" viewBox="0 0 1186 290" fill="none" xmlns="http://www.w3.org/2000/svg">
<path fill-rule="evenodd" clip-rule="evenodd" d="M0 32.625V154.312C0 158.178 3.13401 161.312 7 161.312H63C66.866 161.312 70 158.178 70 154.312V135.688C70 131.822 73.134 128.688 77 128.688H133C136.866 128.688 140 131.822 140 135.688V283C140 286.866 143.134 290 147 290H209H272C275.866 290 279 286.866 279 283V200.938C279 197.072 282.134 193.938 286 193.938H342C345.866 193.938 349 197.072 349 200.938V283C349 286.866 352.134 290 356 290H412C415.866 290 419 286.866 419 283V103.969C419 100.103 422.134 96.9688 426 96.9688H481C484.866 96.9688 488 100.103 488 103.969V154.312C488 158.178 491.134 161.312 495 161.312H551C554.866 161.312 558 164.447 558 168.312V283C558 286.866 561.134 290 565 290H621C624.866 290 628 286.866 628 283V135.688C628 131.822 631.134 128.688 635 128.688H691C694.866 128.688 698 125.553 698 121.688V71.3438C698 67.4778 701.134 64.3438 705 64.3438H767H830C833.866 64.3438 837 67.4778 837 71.3438V218.656C837 222.522 840.134 225.656 844 225.656H900C903.866 225.656 907 228.79 907 232.656V283C907 286.866 910.134 290 914 290H970C973.866 290 977 286.866 977 283V71.3438C977 67.4778 980.134 64.3438 984 64.3438H1039C1042.87 64.3438 1046 67.4778 1046 71.3438V186.938C1046 190.803 1049.13 193.938 1053 193.938H1109C1112.87 193.938 1116 197.072 1116 200.938V283C1116 286.866 1119.13 290 1123 290H1179C1182.87 290 1186 286.866 1186 283V7C1186 3.134 1182.87 0 1179 0H1116H1046H977H907H837H767H698H628H558H488H419H349H279H209H140H70H0V32.625Z" fill="#EA81FD"/>
</svg>
