<svg width="46" height="55" viewBox="0 0 46 55" fill="none" xmlns="http://www.w3.org/2000/svg">
<path d="M23 1.375C18.7353 1.375 14.5665 2.58464 11.0205 4.85094C7.47459 7.11724 4.71087 10.3384 3.07886 14.1072C1.44684 17.8759 1.01983 22.0229 1.85183 26.0237C2.68382 30.0246 4.73745 33.6996 7.75302 36.5841C10.7686 39.4685 14.6107 41.4329 18.7934 42.2287C22.9761 43.0245 27.3116 42.6161 31.2516 41.055C35.1917 39.494 38.5593 36.8504 40.9286 33.4586C43.2979 30.0669 44.5625 26.0792 44.5625 22C44.5625 16.5299 42.2908 11.2839 38.247 7.41592C34.2032 3.54798 28.7187 1.375 23 1.375V1.375ZM23 39.875C19.304 39.875 15.6909 38.8266 12.6178 36.8625C9.54465 34.8984 7.14942 32.1067 5.73501 28.8405C4.3206 25.5742 3.95052 21.9802 4.67158 18.5128C5.39265 15.0454 7.17246 11.8603 9.78595 9.36047C12.3994 6.8606 15.7292 5.15817 19.3543 4.46846C22.9793 3.77875 26.7367 4.13274 30.1514 5.48565C33.5661 6.83857 36.4847 9.12965 38.5381 12.0692C40.5915 15.0087 41.6875 18.4647 41.6875 22C41.6875 26.7407 39.7187 31.2873 36.2141 34.6395C32.7095 37.9917 27.9562 39.875 23 39.875V39.875Z" fill="#EA81FD"/>
<path d="M24.7394 20.625H24.4375V15.4962H28.8507V12.7462H24.4375V10.835H21.5625V12.7462H21.2607C19.8208 12.7957 18.4571 13.3777 17.4568 14.3696C16.4565 15.3614 15.8975 16.6859 15.8975 18.064C15.8975 19.4422 16.4565 20.7666 17.4568 21.7585C18.4571 22.7504 19.8208 23.3323 21.2607 23.3818H21.5625V28.5037H17.1494V31.2537H21.5625V33.165H24.4375V31.2537H24.7394C26.1774 31.2042 27.5392 30.623 28.5383 29.6324C29.5373 28.6418 30.0955 27.3191 30.0955 25.9428C30.0955 24.5664 29.5373 23.2437 28.5383 22.2531C27.5392 21.2625 26.1774 20.6813 24.7394 20.6318V20.625ZM21.2607 20.625C20.5727 20.5909 19.9247 20.3055 19.4503 19.8277C18.976 19.3499 18.7115 18.7161 18.7115 18.0571C18.7115 17.3982 18.976 16.7644 19.4503 16.2866C19.9247 15.8088 20.5727 15.5234 21.2607 15.4893H21.5625V20.625H21.2607ZM24.7394 28.4968H24.4375V23.375H24.7394C25.4255 23.409 26.0717 23.6936 26.5448 24.1702C27.0178 24.6467 27.2816 25.2788 27.2816 25.9359C27.2816 26.593 27.0178 27.2251 26.5448 27.7016C26.0717 28.1782 25.4255 28.4628 24.7394 28.4968V28.4968Z" fill="#EA81FD"/>
</svg>
