<svg width="46" height="55" viewBox="0 0 46 55" fill="none" xmlns="http://www.w3.org/2000/svg">
<path d="M23 15.9979C19.8875 15.9979 17.3555 13.576 17.3555 10.5993C17.3555 7.62168 19.8875 5.19983 23 5.19983C26.1125 5.19983 28.6444 7.62168 28.6444 10.5993C28.6444 13.5765 26.1125 15.9979 23 15.9979ZM23 6.12614C20.4216 6.12614 18.324 8.13301 18.324 10.5993C18.324 13.0652 20.4216 15.0716 23 15.0716C25.5784 15.0716 27.676 13.0652 27.676 10.5993C27.676 8.13301 25.5784 6.12614 23 6.12614Z" fill="#EA81FD"/>
<path d="M25.6835 38.8001H20.3165C18.6561 38.8001 17.3555 37.9864 17.3555 36.9475V28.3152H16.1C15.0139 28.3152 14.1631 27.2809 14.1631 25.9605V16.6593C14.1631 15.3389 15.0139 14.3046 16.1 14.3046H18.2581L18.4029 14.4621C19.5708 15.7325 21.2467 16.4611 23 16.4611C24.7533 16.4611 26.4292 15.7325 27.5971 14.4621L27.7419 14.3046H29.9C30.9861 14.3046 31.8368 15.3389 31.8368 16.6593V25.9605C31.8368 27.2809 30.9861 28.3152 29.9 28.3152H28.6444V36.948C28.6444 37.9868 27.3438 38.8001 25.6835 38.8001ZM16.1 15.2309C15.5751 15.2309 15.1316 15.8849 15.1316 16.6593V25.9605C15.1316 26.7349 15.5751 27.3888 16.1 27.3888H18.324V36.948C18.324 37.3852 19.1762 37.8743 20.3165 37.8743H25.6835C26.8238 37.8743 27.676 37.3852 27.676 36.948V27.3888H29.9C30.4249 27.3888 30.8684 26.7349 30.8684 25.9605V16.6593C30.8684 15.8849 30.4249 15.2309 29.9 15.2309H28.1752C26.8315 16.6042 24.9577 17.3874 23 17.3874C21.0423 17.3874 19.1684 16.6042 17.8247 15.2309H16.1Z" fill="#EA81FD"/>
</svg>
