<svg width="50" height="50" viewBox="0 0 50 50" fill="none" xmlns="http://www.w3.org/2000/svg">
<path d="M44.9028 8.33334C44.7135 8.31383 44.5226 8.31383 44.3333 8.33334H5.44444C5.19519 8.33718 4.9476 8.37455 4.70833 8.44445L24.7778 28.4306L44.9028 8.33334Z" fill="#85D5FF"/>
<path d="M46.9583 10.2639L26.7361 30.4028C26.2157 30.9202 25.5116 31.2105 24.7778 31.2105C24.0439 31.2105 23.3399 30.9202 22.8194 30.4028L2.77778 10.4167C2.71617 10.6431 2.6835 10.8765 2.68056 11.1111V38.8889C2.68056 39.6256 2.97322 40.3322 3.49415 40.8531C4.01508 41.374 4.72162 41.6667 5.45833 41.6667H44.3472C45.0839 41.6667 45.7905 41.374 46.3114 40.8531C46.8323 40.3322 47.125 39.6256 47.125 38.8889V11.1111C47.1139 10.8218 47.0577 10.5359 46.9583 10.2639V10.2639ZM7.36111 38.8889H5.43056V36.9028L15.5278 26.8889L17.4861 28.8472L7.36111 38.8889ZM44.3194 38.8889H42.375L32.25 28.8472L34.2083 26.8889L44.3056 36.9028L44.3194 38.8889Z" fill="#85D5FF"/>
</svg>
