<svg width="46" height="56" viewBox="0 0 46 56" fill="none" xmlns="http://www.w3.org/2000/svg">
<g clip-path="url(#clip0)">
<path d="M5.93399 19.2192C6.11799 19.1296 8.18799 17.696 10.534 15.456L14.49 19.0848C14.812 19.3984 15.226 19.5328 15.64 19.5328C16.1 19.5328 16.514 19.3536 16.836 19.04C17.48 18.4128 17.434 17.3824 16.79 16.7552L12.788 13.0816C13.846 11.8272 14.812 10.3936 15.548 8.82559H17.664C18.584 8.82559 19.32 8.10879 19.32 7.21279C19.32 6.31679 18.584 5.59999 17.664 5.59999H12.65V2.73279C12.65 1.8368 11.914 1.12 10.994 1.12C10.074 1.12 9.33799 1.8368 9.33799 2.73279V5.59999H4.36999C3.44999 5.59999 2.71399 6.31679 2.71399 7.21279C2.71399 8.10879 3.44999 8.82559 4.36999 8.82559H11.822C9.06199 13.2608 4.13999 16.5312 4.09399 16.576C3.35799 17.0688 3.12799 18.0544 3.63399 18.816C3.95599 19.264 4.46199 19.5328 5.01399 19.5328C5.33599 19.488 5.65799 19.3984 5.93399 19.2192Z" fill="#EA81FD"/>
<path d="M43.148 41.44L37.352 28C36.846 26.7904 34.822 26.7904 34.316 28L28.52 41.44C28.152 42.2464 28.566 43.1872 29.394 43.5456C30.222 43.904 31.188 43.5008 31.556 42.6944L32.43 40.6336H39.238L40.112 42.6944C40.388 43.3216 40.986 43.68 41.63 43.68C41.86 43.68 42.044 43.6352 42.274 43.5456C43.102 43.1872 43.516 42.2464 43.148 41.44ZM33.81 37.408L35.834 32.7488L37.858 37.408H33.81Z" fill="#EA81FD"/>
<path d="M34.178 17.7856V17.92L32.522 16.3072C31.878 15.68 30.82 15.68 30.176 16.3072C29.532 16.9344 29.532 17.9648 30.176 18.592L34.638 22.9376C34.96 23.2512 35.374 23.4304 35.788 23.4304C36.248 23.4304 36.662 23.2512 36.938 22.9376L41.4 18.592C42.044 17.9648 42.044 16.9344 41.4 16.3072C40.756 15.68 39.698 15.68 39.054 16.3072L37.444 17.92V17.7408C37.444 11.2 31.97 5.86877 25.254 5.86877C24.334 5.86877 23.598 6.58557 23.598 7.48157C23.598 8.37757 24.334 9.09437 25.254 9.09437C30.176 9.09437 34.178 12.992 34.178 17.7856Z" fill="#EA81FD"/>
<path d="M23.23 37.3185H21.16C16.238 37.3185 12.282 33.4209 12.282 28.6721V27.7313L13.938 29.3441C14.26 29.6577 14.674 29.8369 15.088 29.8369C15.502 29.8369 15.916 29.6577 16.238 29.3441C16.882 28.7169 16.882 27.6865 16.238 27.0593L11.776 22.7137C11.178 22.1313 10.074 22.1313 9.42998 22.7137L4.96799 27.0593C4.32399 27.6865 4.32399 28.7169 4.96799 29.3441C5.61199 29.9713 6.66998 29.9713 7.31398 29.3441L8.96998 27.7313V28.6721C8.96998 35.2129 14.444 40.5441 21.16 40.5441H23.276C24.196 40.5441 24.932 39.8273 24.932 38.9313C24.932 38.0353 24.15 37.3185 23.23 37.3185Z" fill="#EA81FD"/>
</g>
<defs>
<clipPath id="clip0">
<rect width="46" height="56" fill="white"/>
</clipPath>
</defs>
</svg>
