<svg width="46" height="55" viewBox="0 0 46 55" fill="none" xmlns="http://www.w3.org/2000/svg">
<path d="M22.2533 11.9828C22.2518 11.6192 22.0997 11.2711 21.8302 11.0147C21.5607 10.7583 21.1959 10.6147 20.8158 10.6152H19.3783C18.9982 10.6147 18.6334 10.7583 18.3639 11.0147C18.0944 11.2711 17.9423 11.6192 17.9408 11.9828V13.3503C17.9423 13.7139 18.0944 14.062 18.3639 14.3184C18.6334 14.5748 18.9982 14.7184 19.3783 14.7179H20.8158C21.1959 14.7184 21.5607 14.5748 21.8302 14.3184C22.0997 14.062 22.2518 13.7139 22.2533 13.3503V11.9828ZM19.3783 13.3503V11.9828H20.8158L20.8167 13.3503H19.3783Z" fill="#EA81FD"/>
<path d="M28.0033 11.9828C28.0018 11.6192 27.8497 11.2711 27.5802 11.0147C27.3107 10.7583 26.9459 10.6147 26.5658 10.6152H25.1283C24.7482 10.6147 24.3834 10.7583 24.1139 11.0147C23.8444 11.2711 23.6923 11.6192 23.6908 11.9828V13.3503C23.6923 13.7139 23.8444 14.062 24.1139 14.3184C24.3834 14.5748 24.7482 14.7184 25.1283 14.7179H26.5658C26.9459 14.7184 27.3107 14.5748 27.5802 14.3184C27.8497 14.062 28.0018 13.7139 28.0033 13.3503V11.9828ZM25.1283 13.3503V11.9828H26.5658L26.5667 13.3503H25.1283Z" fill="#EA81FD"/>
<path d="M22.2533 17.453C22.2518 17.0894 22.0997 16.7413 21.8302 16.4849C21.5607 16.2285 21.1959 16.0849 20.8158 16.0855H19.3783C18.9982 16.0849 18.6334 16.2285 18.3639 16.4849C18.0944 16.7413 17.9423 17.0894 17.9408 17.453V18.8206C17.9423 19.1841 18.0944 19.5323 18.3639 19.7886C18.6334 20.045 18.9982 20.1887 19.3783 20.1881H20.8158C21.1959 20.1887 21.5607 20.045 21.8302 19.7886C22.0997 19.5323 22.2518 19.1841 22.2533 18.8206V17.453ZM19.3783 18.8206V17.453H20.8158L20.8167 18.8206H19.3783Z" fill="#EA81FD"/>
<path d="M28.0033 17.453C28.0018 17.0894 27.8497 16.7413 27.5802 16.4849C27.3107 16.2285 26.9459 16.0849 26.5658 16.0855H25.1283C24.7482 16.0849 24.3834 16.2285 24.1139 16.4849C23.8444 16.7413 23.6923 17.0894 23.6908 17.453V18.8206C23.6923 19.1841 23.8444 19.5323 24.1139 19.7886C24.3834 20.045 24.7482 20.1887 25.1283 20.1881H26.5658C26.9459 20.1887 27.3107 20.045 27.5802 19.7886C27.8497 19.5323 28.0018 19.1841 28.0033 18.8206V17.453ZM25.1283 18.8206V17.453H26.5658L26.5667 18.8206H25.1283Z" fill="#EA81FD"/>
<path d="M22.2533 22.9232C22.2518 22.5596 22.0997 22.2114 21.8302 21.9551C21.5607 21.6987 21.1959 21.555 20.8158 21.5556H19.3783C18.9982 21.555 18.6334 21.6987 18.3639 21.9551C18.0944 22.2114 17.9423 22.5596 17.9408 22.9232V24.2907C17.9422 24.6543 18.0944 25.0024 18.3639 25.2588C18.6334 25.5152 18.9982 25.6588 19.3783 25.6582H20.8158C21.1959 25.6588 21.5607 25.5152 21.8302 25.2588C22.0997 25.0024 22.2519 24.6543 22.2533 24.2907V22.9232ZM19.3783 24.2907V22.9232H20.8158L20.8167 24.2907H19.3783Z" fill="#EA81FD"/>
<path d="M28.0033 22.9232C28.0018 22.5596 27.8497 22.2114 27.5802 21.9551C27.3107 21.6987 26.9459 21.555 26.5658 21.5556H25.1283C24.7482 21.555 24.3834 21.6987 24.1139 21.9551C23.8444 22.2114 23.6923 22.5596 23.6908 22.9232V24.2907C23.6922 24.6543 23.8444 25.0024 24.1139 25.2588C24.3834 25.5152 24.7482 25.6588 25.1283 25.6582H26.5658C26.9459 25.6588 27.3107 25.5152 27.5802 25.2588C27.8497 25.0024 28.0019 24.6543 28.0033 24.2907V22.9232ZM25.1283 24.2907V22.9232H26.5658L26.5667 24.2907H25.1283Z" fill="#EA81FD"/>
<path d="M26.5658 27.0258H25.1283C24.7482 27.0252 24.3834 27.1688 24.1139 27.4252C23.8444 27.6816 23.6922 28.0297 23.6908 28.3933V29.7608C23.6922 30.1244 23.8444 30.4726 24.1139 30.729C24.3834 30.9853 24.7482 31.129 25.1283 31.1284H26.5658C26.9459 31.129 27.3107 30.9853 27.5802 30.729C27.8497 30.4726 28.0019 30.1244 28.0033 29.7608V28.3933C28.0019 28.0297 27.8497 27.6816 27.5802 27.4252C27.3107 27.1688 26.9459 27.0252 26.5658 27.0258ZM25.1283 29.7608V28.3933H26.5658L26.5667 29.7608L25.1283 29.7608Z" fill="#EA81FD"/>
<path d="M7.18747 24.7453C7.18979 24.3369 7.06529 23.9371 6.82977 23.5964C6.59424 23.2558 6.25829 22.9897 5.86449 22.8319C5.47069 22.674 5.03677 22.6316 4.61772 22.7099C4.19868 22.7882 3.81337 22.9838 3.51064 23.2718C3.20791 23.5598 3.00138 23.9273 2.91723 24.3277C2.83308 24.7281 2.8751 25.1433 3.03796 25.5209C3.20082 25.8984 3.47719 26.2212 3.83204 26.4483C4.18689 26.6754 4.60425 26.7967 5.03122 26.7967C5.60135 26.7976 6.14856 26.5821 6.5528 26.1975C6.95703 25.8129 7.18528 25.2907 7.18747 24.7453ZM4.31247 24.7453C4.3117 24.6092 4.3532 24.4759 4.43171 24.3624C4.51022 24.2488 4.6222 24.1601 4.75347 24.1075C4.88473 24.0549 5.02937 24.0408 5.16905 24.0669C5.30873 24.093 5.43716 24.1582 5.53807 24.2542C5.63898 24.3502 5.70782 24.4727 5.73587 24.6061C5.76391 24.7396 5.74991 24.878 5.69562 25.0039C5.64134 25.1297 5.54922 25.2373 5.43094 25.313C5.31266 25.3887 5.17354 25.4291 5.03122 25.4291C4.93709 25.4294 4.84383 25.4119 4.75676 25.3777C4.6697 25.3434 4.59054 25.2931 4.52379 25.2296C4.45705 25.1661 4.40404 25.0907 4.36778 25.0076C4.33152 24.9245 4.31273 24.8354 4.31247 24.7453Z" fill="#EA81FD"/>
<path d="M40.9688 26.1129C38.1945 26.1129 35.9375 28.1771 35.9375 30.7143C35.9375 32.6282 38.4476 36.0977 39.5594 37.5404C35.9839 38.6586 30.2784 39.5387 22.959 39.5387C20.9856 39.5387 19.1301 39.4742 17.4002 39.3589C18.5816 37.8014 20.8438 34.5814 20.8438 32.7656C20.8438 30.2284 18.5868 28.1642 15.8125 28.1642C13.0382 28.1642 10.7812 30.2284 10.7812 32.7656C10.7812 34.4685 12.7703 37.4055 13.9922 39.049C6.49011 38.175 2.13706 36.3009 2.13706 34.8501C2.13706 33.7168 4.79523 32.3255 9.53475 31.3542C9.67374 30.8245 9.89019 30.3162 10.1777 29.8443C9.07983 30.0436 8.04329 30.2711 7.08524 30.5253C8.31094 28.8425 10.0625 26.1589 10.0625 24.5604C10.0625 22.0231 7.80551 19.9589 5.03125 19.9589C2.25699 19.9589 0 22.0231 0 24.5604C0 26.6006 2.85197 30.4083 3.82156 31.6435C1.87375 32.5205 0.699556 33.5925 0.699556 34.8501C0.699556 38.7838 12.1681 40.9062 22.959 40.9062C29.8562 40.9062 37.0215 40.0368 41.3006 38.3838C41.6269 38.3104 41.9161 38.1302 42.1182 37.8744C43.0289 36.7207 46 32.7949 46 30.7143C46 28.1771 43.743 26.1129 40.9688 26.1129ZM1.4375 24.5604C1.4375 22.7743 3.04648 21.3265 5.03125 21.3265C7.01602 21.3265 8.625 22.7744 8.625 24.5604C8.625 26.3464 5.03125 30.8993 5.03125 30.8993C5.03125 30.8993 1.4375 26.3464 1.4375 24.5604ZM12.2188 32.7656C12.2188 30.9796 13.8277 29.5318 15.8125 29.5318C17.7973 29.5318 19.4062 30.9796 19.4062 32.7656C19.4062 34.5516 15.8125 39.1046 15.8125 39.1046C15.8125 39.1046 12.2188 34.5517 12.2188 32.7656ZM40.9779 37.0415L40.964 37.0472C40.8642 36.9204 37.375 32.4748 37.375 30.7143C37.375 28.9283 38.984 27.4804 40.9688 27.4804C42.9535 27.4804 44.5625 28.9283 44.5625 30.7143C44.5625 32.4506 41.1671 36.8005 40.9779 37.0415V37.0415Z" fill="#EA81FD"/>
<path d="M40.9688 29.1899C40.5451 29.1921 40.1316 29.3143 39.7805 29.541C39.4293 29.7677 39.1563 30.0889 38.9957 30.4639C38.8352 30.8389 38.7944 31.251 38.8785 31.6482C38.9625 32.0454 39.1677 32.4099 39.4681 32.6957C39.7685 32.9814 40.1506 33.1757 40.5663 33.2539C40.982 33.3322 41.4126 33.2909 41.8038 33.1353C42.195 32.9797 42.5292 32.7168 42.7644 32.3797C42.9995 32.0426 43.125 31.6464 43.125 31.2412C43.1228 30.6959 42.8945 30.1736 42.4903 29.7891C42.0861 29.4045 41.5389 29.189 40.9688 29.1899ZM40.9688 31.925C40.8275 31.9242 40.6897 31.8835 40.5727 31.8079C40.4556 31.7323 40.3646 31.6253 40.3111 31.5003C40.2576 31.3753 40.244 31.2379 40.272 31.1055C40.3 30.9731 40.3684 30.8516 40.4685 30.7564C40.5687 30.6611 40.696 30.5963 40.8346 30.5703C40.9732 30.5442 41.1167 30.5579 41.2471 30.6098C41.3775 30.6617 41.4889 30.7493 41.5673 30.8617C41.6457 30.9741 41.6875 31.1061 41.6875 31.2412C41.687 31.423 41.611 31.5972 41.4762 31.7255C41.3414 31.8537 41.1589 31.9255 40.9688 31.925V31.925Z" fill="#EA81FD"/>
<path d="M20.8158 27.0258H19.3783C19.0508 27.027 18.7338 27.1359 18.4802 27.3341C19.1089 27.5981 19.6898 27.9556 20.2016 28.3933H20.8158L20.8162 28.9877C21.2638 29.4932 21.6195 30.067 21.8684 30.6852C22.1147 30.435 22.2523 30.1045 22.2533 29.7608V28.3933C22.2519 28.0297 22.0997 27.6816 21.8302 27.4252C21.5607 27.1688 21.1959 27.0252 20.8158 27.0258Z" fill="#EA81FD"/>
<path d="M15.8125 30.8993C15.3888 30.9015 14.9754 31.0237 14.6242 31.2504C14.2731 31.4772 14 31.7983 13.8395 32.1733C13.679 32.5484 13.6381 32.9605 13.7222 33.3576C13.8063 33.7548 14.0114 34.1193 14.3118 34.4051C14.6122 34.6908 14.9944 34.8851 15.4101 34.9634C15.8257 35.0416 16.2564 35.0003 16.6476 34.8447C17.0387 34.6892 17.373 34.4262 17.6081 34.0891C17.8433 33.752 17.9688 33.3559 17.9688 32.9506C17.9666 32.4053 17.7383 31.883 17.3341 31.4985C16.9298 31.1139 16.3826 30.8984 15.8125 30.8993ZM15.8125 33.6344C15.6713 33.6336 15.5335 33.5929 15.4164 33.5173C15.2994 33.4418 15.2083 33.3347 15.1548 33.2097C15.1013 33.0847 15.0877 32.9473 15.1157 32.8149C15.1437 32.6825 15.2121 32.561 15.3123 32.4658C15.4124 32.3705 15.5398 32.3058 15.6784 32.2797C15.8169 32.2536 15.9605 32.2674 16.0909 32.3192C16.2213 32.3711 16.3327 32.4587 16.411 32.5711C16.4894 32.6835 16.5313 32.8155 16.5313 32.9506C16.5307 33.1324 16.4547 33.3066 16.3199 33.4349C16.1851 33.5631 16.0026 33.6349 15.8125 33.6344Z" fill="#EA81FD"/>
<path d="M30.1595 35.2311C30.3496 35.2316 30.5322 35.1598 30.667 35.0316C30.8017 34.9033 30.8778 34.7291 30.8783 34.5473V30.5385C32.1745 30.6683 33.3841 30.8277 34.5034 31.01C34.5084 30.5565 34.5694 30.1051 34.6853 29.6653C33.4693 29.4704 32.1931 29.3068 30.8783 29.1768V9.24771C30.8768 8.88415 30.7246 8.536 30.4552 8.27963C30.1857 8.02325 29.8209 7.87959 29.4408 7.88016H28.722V6.51263C28.7206 6.14907 28.5684 5.80092 28.2989 5.54454C28.0294 5.28817 27.6646 5.14451 27.2845 5.14508H26.9252V3.77753C26.9252 3.59519 26.8494 3.42032 26.7147 3.29139C26.5799 3.16246 26.397 3.09003 26.2064 3.09003C26.0158 3.09003 25.833 3.16246 25.6982 3.29139C25.5634 3.42032 25.4877 3.59519 25.4877 3.77753V5.14508H25.1283C24.7482 5.14451 24.3834 5.28817 24.1139 5.54454C23.8444 5.80092 23.6923 6.14907 23.6908 6.51263V7.88016H22.2533V6.51263C22.2518 6.14907 22.0997 5.80092 21.8302 5.54454C21.5607 5.28817 21.1959 5.14451 20.8158 5.14508H20.4564V3.77753C20.4564 3.59519 20.3807 3.42032 20.2459 3.29139C20.1111 3.16246 19.9283 3.09003 19.7377 3.09003C19.547 3.09003 19.3642 3.16246 19.2294 3.29139C19.0946 3.42032 19.0189 3.59519 19.0189 3.77753V5.14508H18.6595C18.2795 5.14451 17.9147 5.28817 17.6452 5.54454C17.3757 5.80092 17.2235 6.14907 17.222 6.51263V7.88016H16.5033C16.1232 7.87959 15.7584 8.02325 15.4889 8.27963C15.2194 8.536 15.0673 8.88415 15.0658 9.24771V26.8398C15.5431 26.7852 16.0254 26.7825 16.5033 26.8318V9.24771H29.4408V34.5473C29.4413 34.7291 29.5173 34.9033 29.6521 35.0316C29.7869 35.1598 29.9694 35.2316 30.1595 35.2311ZM20.8158 7.88016H18.6595V6.51263H20.8158V7.88016ZM27.2845 7.88016H25.1283V6.51263H27.2845V7.88016Z" fill="#EA81FD"/>
</svg>
