<svg width="46" height="55" viewBox="0 0 46 55" fill="none" xmlns="http://www.w3.org/2000/svg">
<path fill-rule="evenodd" clip-rule="evenodd" d="M23 5.47754C25.6829 5.47754 27.8556 7.55629 27.8556 10.122C27.8556 12.6882 25.6829 14.7665 23 14.7665C20.3177 14.7665 18.145 12.6882 18.145 10.122C18.145 7.55629 20.3177 5.47754 23 5.47754ZM10.5294 11.4145C12.7298 11.4145 14.5124 13.1196 14.5124 15.2243C14.5124 17.3296 12.7298 19.0347 10.5294 19.0347C8.32901 19.0347 6.5464 17.3296 6.5464 15.2243C6.5464 13.1196 8.32901 11.4145 10.5294 11.4145ZM14.5831 28.0216V38.5219H6.47849V28.0216H4.29492V24.4576C4.29492 21.9984 6.39373 19.9909 8.96414 19.9909H12.0942C14.6651 19.9909 16.7639 21.9984 16.7639 24.4576V28.0216H14.5831ZM35.4712 11.4145C37.6716 11.4145 39.4542 13.1196 39.4542 15.2243C39.4542 17.3296 37.6716 19.0347 35.4712 19.0347C33.2708 19.0347 31.4882 17.3296 31.4882 15.2243C31.4882 13.1196 33.2708 11.4145 35.4712 11.4145ZM39.5249 28.0216V38.5219H31.4203V28.0216H29.2367V24.4576C29.2367 21.9984 31.3355 19.9909 33.9065 19.9909H37.0365C39.6069 19.9909 41.7057 21.9984 41.7057 24.4576V28.0216H39.5249ZM27.942 25.722V38.5219H18.0624V25.722H18.045V24.4571C18.045 22.5826 17.0877 20.9196 15.6208 19.8786C16.3059 17.6055 18.5031 15.9326 21.0925 15.9326H24.9082C27.4976 15.9326 29.6947 17.6055 30.3798 19.8786C28.9129 20.9159 27.9556 22.5826 27.9556 24.4571V25.722H27.942Z" fill="#EA81FD"/>
</svg>
