<svg width="46" height="55" viewBox="0 0 46 55" fill="none" xmlns="http://www.w3.org/2000/svg">
<path d="M44.9546 19.1334L36.8697 7.60005C36.2424 6.66671 34.9182 6.40005 33.9424 7.06672L31.3637 8.66672C30.3879 9.26672 30.1788 10.5334 30.8061 11.4667L31.5031 12.4667C29.3424 12.6 27.2515 11.7334 27.2515 11.6667C25.2303 10.8667 23.0697 11.3334 21.4667 11.9334C20.3515 11.0667 18.5394 10.2 16.9364 9.66672C17.5637 8.73338 17.3546 7.53338 16.4485 6.86672L13.9394 5.20005C13.0334 4.53338 11.6394 4.80005 10.9424 5.66671L1.11518 18.5334C0.418206 19.4667 0.627297 20.7334 1.60305 21.4L4.04245 23.1334C4.39093 23.4 4.87881 23.5334 5.29699 23.5334C5.92427 23.5334 6.41215 23.2667 6.83033 22.8667C7.66669 23.6667 8.50305 24.4 9.13033 24.8667L7.59699 27C6.69093 28.3334 7.03942 30.2 8.50305 31.0667C9.26972 31.5334 10.1758 31.6667 11.1515 31.4C11.2212 32.2667 11.7091 33.0667 12.4758 33.6001C12.9637 33.9334 13.5909 34.0667 14.1485 34.0667C14.497 34.0667 14.7758 34.0001 15.0546 33.9334C15.1243 34.8001 15.6121 35.6 16.3788 36.1334C16.8667 36.4667 17.494 36.6001 18.0515 36.6001C18.3303 36.6001 18.6788 36.5334 18.9576 36.4667C19.0273 37.2667 19.5152 38.0667 20.2818 38.6001L20.4212 38.6667C21.8152 39.5334 23.697 39.2 24.6031 37.8667C24.9515 37.3334 25.2303 37.1334 25.4394 36.4L25.8576 36.6667C27.0424 37.4667 28.7152 37.2 29.5515 36C29.8303 35.6 30.0394 35.0667 30.0394 34.5334C31.0152 34.6667 32.0606 34.2667 32.6182 33.4667C33.0364 32.9334 33.1758 32.2 33.0364 31.4C33.8728 31.2667 34.5 30.8667 34.9182 30.3334C35.2667 29.8667 35.4061 29.4 35.4061 28.8667C36.3818 29 37.4273 28.6 37.9849 27.8C38.6121 26.8667 38.6121 25.6667 37.8455 24.7334C38.3334 24.0667 38.6121 23.4667 38.7515 22.9334L38.8212 23.0667C39.4485 24 40.7728 24.2667 41.7485 23.6L44.397 21.9334C45.3728 21.3334 45.5818 20.0667 44.9546 19.1334ZM4.87881 22.0667L2.43942 20.3334C2.09093 20.0667 2.02124 19.6667 2.30002 19.3334L12.1273 6.40005C12.4061 6.06672 12.8243 6.00005 13.1728 6.26671L15.6121 8.00005C15.9606 8.20005 16.0303 8.66672 15.7515 9.00005L5.92427 21.8667C5.64548 22.2 5.1576 22.2667 4.87881 22.0667ZM9.20002 30C8.43336 29.5334 8.22427 28.5334 8.71215 27.8L11.9879 23.2667C12.4758 22.5334 13.5212 22.3334 14.3576 22.8C15.1243 23.3334 15.3334 24.3334 14.8455 25L11.5697 29.5334C11.0818 30.2667 9.96669 30.4667 9.20002 30ZM13.1728 32.5334C12.4061 32.0667 12.197 31.0667 12.6849 30.3334L14.8455 27.3334C15.3334 26.6 16.3788 26.4 17.2152 26.8667C17.9818 27.3334 18.1909 28.3334 17.7031 29.0667L15.5424 32.0667C15.0546 32.8 13.9394 33 13.1728 32.5334ZM17.2152 35.0667C16.4485 34.6 16.2394 33.6 16.7273 32.8667L17.7728 31.5334C19.0273 29.7334 21.8152 31.5334 20.6303 33.2667C19.9334 34.1334 20.1424 33.9334 19.6546 34.6001C19.0273 35.2667 17.9121 35.5334 17.2152 35.0667ZM23.9061 36.4667L23.4182 37.1334C22.9303 37.8 21.8849 38.0001 21.1879 37.6001L21.0485 37.5334C20.2818 37.0667 20.0728 36.1334 20.5606 35.4C20.6303 35.3334 21.2576 34.4667 21.1879 34.5334C22.6515 33.1334 25.0212 34.9334 23.9061 36.4667ZM36.8697 27.0667C36.4515 27.6 35.6849 27.7334 35.1273 27.4L30.0394 24C29.9697 23.9334 29.8303 23.9334 29.6909 23.8667C29.4818 23.8667 29.2031 23.9334 29.0637 24.1334C28.8546 24.4 28.9243 24.8667 29.2031 25.0667L33.4546 27.9334C34.8485 28.8667 33.3849 30.8667 31.9909 29.9334L28.1576 27.3334C27.8091 27.1334 27.3909 27.2 27.1818 27.4667C26.9728 27.8 27.0424 28.2 27.3212 28.4L31.1546 31C31.7121 31.4 31.8515 32.1334 31.5031 32.7334C31.0849 33.2667 30.3182 33.4667 29.6909 33.0667C29.2727 32.8 26.0667 30.7334 26.2758 30.8667L25.9273 30.6667C25.5788 30.4667 25.1606 30.5334 24.9515 30.8667C24.8121 31.0667 24.8121 31.4001 24.9515 31.6001C25.0909 31.8001 25.2303 31.8 25.5788 32.0667C27.5303 33.4667 28.6455 33.6 28.6455 34.6667C28.6455 35.6 27.5303 36.2667 26.6243 35.6667L25.3697 34.8C24.9515 33.4667 23.4879 32.6 22.094 32.7334C22.2334 31.6667 21.7455 30.5334 20.7697 29.9334C19.9334 29.4001 19.2364 29.4667 19.097 29.4667C19.7243 28.2 19.2364 26.6 17.9818 25.8C17.494 25.4667 16.8667 25.3334 16.2394 25.3334C16.7273 24.0667 16.3091 22.6 15.0546 21.8C13.6606 20.9334 11.7091 21.2667 10.8031 22.6L9.89699 23.8667C9.26972 23.4 8.43336 22.6667 7.66669 21.8667L16.0303 10.9334C17.5637 11.4667 19.0273 12.1334 20.0031 12.7334C19.5152 13 19.1667 13.2 19.0273 13.3334C17.2849 14.2 16.7273 15.4 16.5182 16.2667C16.2394 17.9334 17.7728 19.4 20.2121 19.2C23.5576 18.9334 23.4879 17.4667 25.1606 16.8667C25.3697 16.8 25.6485 16.8667 25.7879 17C37.3576 26 36.4515 25.3334 36.5212 25.3334C37.1485 25.7334 37.2879 26.5334 36.8697 27.0667ZM37.497 21.0667C37.5667 21.4 37.7758 22.4667 36.8 23.8667L26.7637 15.8667C26.2061 15.4667 25.4394 15.3334 24.8121 15.5334C22.4424 16.3334 23.2788 17.5334 20.2121 17.8C19.097 17.8667 17.8424 17.4667 17.9818 16.4C18.1212 15.5334 18.7485 14.8667 19.794 14.3334L19.8637 14.2667C19.9334 14.2667 23.6273 11.6667 26.6243 12.8667C26.7637 12.9334 29.5515 14.1334 32.3394 13.6667C32.897 14.4667 30.4576 11 37.497 21.0667ZM43.6303 20.8L40.9818 22.4667C40.6334 22.6667 40.2152 22.6 40.0061 22.2667L31.9909 10.7334C31.7818 10.4 31.8515 10 32.2 9.80005L34.8485 8.13338C35.197 7.93338 35.6152 8.00005 35.8243 8.33338L43.9091 19.8667C44.0485 20.2 43.9091 20.6 43.6303 20.8Z" fill="#EA81FD"/>
</svg>
