<svg width="46" height="55" viewBox="0 0 46 55" fill="none" xmlns="http://www.w3.org/2000/svg">
<path d="M35.834 15.796C34.638 17.336 33.166 19.096 31.878 20.592C31.28 21.34 30.36 21.736 29.348 21.736C28.382 21.736 27.462 21.34 26.864 20.592C26.772 20.504 26.68 20.416 26.634 20.284C26.588 20.284 26.588 20.284 26.542 20.284L25.806 19.976C25.668 19.932 25.53 19.932 25.438 20.02L24.518 20.636C24.426 20.724 24.334 20.856 24.38 20.944L24.518 22C24.518 22.132 24.472 22.308 24.334 22.352L23.598 22.66C23.368 22.748 23.322 23.056 23.506 23.232L24.012 23.716C24.104 23.804 24.242 23.848 24.334 23.804L25.254 23.584C25.346 23.584 25.392 23.584 25.484 23.584L25.898 23.76C26.036 23.804 26.358 24.068 26.588 24.244C26.772 24.376 27.002 24.332 27.14 24.156C27.186 24.068 27.278 24.024 27.416 24.024L28.152 23.936C28.244 23.936 28.29 23.892 28.336 23.848L28.428 23.804C28.612 23.628 28.934 23.716 29.026 23.936L29.394 24.904C29.394 24.948 29.44 24.948 29.44 24.992L29.854 25.52C29.992 25.652 29.946 25.872 29.808 26.004L28.796 26.928C28.658 27.06 28.428 27.06 28.29 26.928L27.324 26.048C27.278 26.004 27.278 26.004 27.232 26.004L25.852 25.432C25.806 25.432 25.76 25.432 25.76 25.388L23.92 25.212C23.874 25.212 23.828 25.212 23.782 25.212L21.666 25.784C21.528 25.828 21.436 25.916 21.436 26.004L20.7 28.204C20.654 28.292 20.7 28.38 20.7 28.468L21.758 30.624C21.804 30.756 21.942 30.8 22.034 30.844L24.058 31.02C24.104 31.02 24.15 31.02 24.196 31.064L24.978 31.504C25.07 31.548 25.162 31.68 25.162 31.768L25.346 33.748C25.346 33.792 25.346 33.836 25.392 33.88L26.358 35.64C26.404 35.684 26.404 35.728 26.45 35.772L27.6 36.608C27.784 36.74 28.014 36.696 28.106 36.52L28.52 35.948C28.52 35.948 28.566 35.904 28.566 35.86L29.44 33.88C29.44 33.836 29.44 33.836 29.44 33.792L29.716 31.02C29.716 30.976 29.716 30.932 29.762 30.888L30.36 29.744C30.406 29.612 30.59 29.524 30.728 29.524L32.706 29.788C32.798 29.788 32.936 29.744 33.028 29.7L33.396 29.304C33.534 29.172 33.534 28.996 33.442 28.864L32.522 27.676C32.338 27.456 32.476 27.192 32.752 27.104L33.12 27.016C33.166 27.016 33.764 26.972 33.902 26.972H33.948L34.868 27.104C35.052 27.148 35.19 27.324 35.19 27.5L34.96 29.92C34.96 29.964 34.96 30.008 34.96 30.096L35.742 32.12C33.58 36.74 28.658 39.996 23 39.996C20.332 39.996 17.802 39.248 15.64 38.016L16.606 33.748C16.652 33.572 16.606 33.396 16.56 33.264L15.088 30.228C14.95 29.964 14.72 29.788 14.444 29.744L11.224 29.304C10.58 29.216 10.304 28.468 10.718 27.984L10.948 27.72C11.132 27.5 11.408 27.412 11.684 27.456L13.202 27.676C13.294 27.676 13.432 27.676 13.524 27.676L15.594 27.236C15.64 27.236 15.732 27.192 15.778 27.192L17.066 26.62C17.296 26.488 17.48 26.268 17.526 26.004L18.032 22.352C18.078 22 17.848 21.648 17.526 21.516L16.882 21.12C16.514 20.988 16.284 20.592 16.376 20.24C16.422 19.888 16.744 19.624 17.112 19.58L18.078 19.492C18.538 19.448 18.86 19.096 18.86 18.656L18.814 17.512L18.676 15.312C18.676 15.004 18.446 14.696 18.124 14.608L17.296 14.3C18.492 13.772 19.78 13.42 21.114 13.244C20.93 12.98 20.792 12.716 20.7 12.54C20.378 11.88 20.102 11.176 19.918 10.472C11.96 11.924 5.93402 18.568 5.93402 26.576C5.93402 35.596 13.616 42.9 23 42.9C32.43 42.9 40.066 35.552 40.066 26.576C40.066 22.44 38.502 18.7 35.834 15.796Z" fill="#EA81FD"/>
<path d="M28.612 19.272C29.026 19.712 29.762 19.712 30.13 19.272C31.74 17.424 35.236 13.2 36.156 11.572C37.306 9.54801 37.26 7.17201 36.156 5.06001C34.27 1.49601 29.716 0.0440101 25.99 1.84801C22.264 3.65201 20.792 8.14001 22.632 11.572C23.506 13.2 27.048 17.424 28.612 19.272ZM29.394 4.88401C31.372 4.88401 32.982 6.42401 32.982 8.31601C32.982 10.208 31.372 11.748 29.394 11.748C27.416 11.748 25.806 10.208 25.806 8.31601C25.806 6.42401 27.416 4.88401 29.394 4.88401Z" fill="#EA81FD"/>
</svg>
