<svg width="42" height="42" viewBox="0 0 42 42" fill="none" xmlns="http://www.w3.org/2000/svg">
<path d="M17.0625 3.9375C24.297 3.9375 30.1875 9.828 30.1875 17.0625C30.1875 20.2059 29.085 23.0869 27.2344 25.3483L37.6937 35.805L35.805 37.695L25.347 27.2357C23.0113 29.1505 20.0827 30.194 17.0625 30.1875C9.82798 30.1875 3.93748 24.297 3.93748 17.0625C3.93748 9.828 9.82798 3.9375 17.0625 3.9375ZM17.0625 6.5625C11.2481 6.5625 6.56248 11.2481 6.56248 17.0625C6.56248 22.8769 11.2481 27.5625 17.0625 27.5625C22.8769 27.5625 27.5625 22.8769 27.5625 17.0625C27.5625 11.2481 22.8769 6.5625 17.0625 6.5625Z" fill="#E982FE"/>
</svg>
