<svg width="46" height="55" viewBox="0 0 46 55" fill="none" xmlns="http://www.w3.org/2000/svg">
<path d="M23 1.41431C28.9429 1.41431 34.3234 3.71849 38.218 7.44372C42.1125 11.169 44.5214 16.3155 44.5214 22C44.5214 27.6845 42.1125 32.8311 38.218 36.5563C34.3234 40.2816 28.9429 42.5857 23 42.5857C17.0571 42.5857 11.6766 40.2816 7.78206 36.5563C3.8875 32.8311 1.47858 27.6845 1.47858 22C1.47858 16.3155 3.8875 11.169 7.78206 7.44372C11.6766 3.71849 17.0571 1.41431 23 1.41431ZM23.2463 4.28216C28.2898 4.34534 32.8468 6.33508 36.1488 9.51738C39.4729 12.7209 41.5265 17.1316 41.5265 22C41.5265 26.8773 39.4655 31.295 36.131 34.4998C32.8302 37.6722 28.2803 39.6552 23.2463 39.718V41.5225C23.2463 41.566 23.2339 41.6067 23.2126 41.6416C28.799 41.5874 33.8512 39.3998 37.5211 35.8897C41.2372 32.335 43.5357 27.4243 43.5357 22C43.5357 16.5758 41.2372 11.6651 37.5211 8.11032C33.8512 4.60022 28.799 2.41264 23.2126 2.35842C23.2339 2.39331 23.2463 2.43401 23.2463 2.47754V4.28216V4.28216ZM22.5398 41.6379C18.5994 39.5155 15.6467 36.5095 13.6829 33.0649C13.361 32.5006 13.0661 31.9245 12.7975 31.3387L12.686 31.3569C10.0883 31.7874 7.80851 32.3941 6.11012 33.1765C6.81425 34.1483 7.60775 35.0562 8.47896 35.8897C12.0944 39.348 17.0519 41.5224 22.5398 41.6379V41.6379ZM5.74212 32.6502C7.49965 31.8262 9.85616 31.1912 12.5358 30.7449C11.3904 28.0393 10.7995 25.143 10.7635 22.2428H2.46577C2.5144 26.0762 3.71122 29.6452 5.74212 32.6502ZM2.46577 21.7714H10.7625C10.7888 18.6202 11.4694 15.4762 12.8048 12.5788C10.2087 12.128 7.92876 11.487 6.2335 10.6556C3.90261 13.8019 2.51506 17.6329 2.46577 21.7714V21.7714ZM6.62614 10.1436C8.27639 10.9353 10.5033 11.5485 13.0443 11.982L13.0873 11.9892C13.285 11.5921 13.4951 11.1999 13.718 10.8137C15.6809 7.41009 18.621 4.44764 22.5385 2.36219C17.0511 2.47801 12.0941 4.65255 8.47896 8.11032C7.81426 8.74628 7.19506 9.42561 6.62614 10.1436V10.1436ZM22.7496 36.0623C22.7496 36.048 22.7508 36.034 22.7534 36.0205V30.5752C19.5438 30.5873 16.3385 30.8071 13.4654 31.2345C13.708 31.7536 13.9722 32.2643 14.2579 32.7654C16.1467 36.0783 18.9788 38.9737 22.7534 41.0322V37.6535C22.7508 37.64 22.7496 37.626 22.7496 37.6117V36.0623V36.0623ZM23.2463 36.0195C23.2489 36.0334 23.2504 36.0477 23.2504 36.0623V37.6117C23.2504 37.6263 23.2489 37.6406 23.2463 37.6544V39.0918C28.0983 39.0291 32.4837 37.1167 35.6664 34.0578C38.8818 30.9674 40.8694 26.706 40.8694 22C40.8694 17.3026 38.8892 13.0481 35.6842 9.95926C32.4998 6.89026 28.107 4.97076 23.2463 4.90822V19.2467C23.9737 19.3057 24.6241 19.6218 25.0971 20.0994C25.5885 20.5955 25.8898 21.2646 25.8898 22C25.8898 22.7336 25.5901 23.4008 25.1016 23.8961L31.6099 27.8349C31.7246 27.904 31.7591 28.0491 31.6868 28.1589C31.6145 28.2688 31.4629 28.3018 31.348 28.2326L24.7193 24.2209C24.301 24.5176 23.7955 24.7089 23.2463 24.7533V36.0195V36.0195ZM13.1981 30.6394C16.1411 30.1916 19.4431 29.9614 22.7534 29.9491V22.2428H11.4182C11.4547 25.1099 12.0482 27.9724 13.1981 30.6394ZM22.7534 13.3859C19.5355 13.3732 16.327 13.1409 13.4713 12.6895C12.1284 15.547 11.4437 18.6559 11.4172 21.7714H22.7534V13.3859V13.3859ZM13.7606 12.0981C16.5423 12.5268 19.6456 12.7475 22.7534 12.7599V2.96515C19.0021 4.98664 16.1818 7.84066 14.293 11.1157C14.1064 11.4391 13.929 11.7669 13.7606 12.0981V12.0981ZM23.2463 19.8764V24.1237C23.7838 24.0674 24.2643 23.8282 24.6181 23.4726C24.9989 23.09 25.2326 22.5714 25.2326 22C25.2326 21.4304 25.0005 20.9135 24.6222 20.5315C24.2676 20.1737 23.7856 19.933 23.2463 19.8764V19.8764ZM33.5723 12.2257C33.4757 12.3183 33.318 12.3175 33.2204 12.2242C33.1226 12.1307 33.1218 11.98 33.2186 11.8874L34.3641 10.7917C34.4607 10.6993 34.6185 10.7 34.716 10.7934C34.8136 10.8867 34.8144 11.0376 34.7178 11.13L33.5723 12.2257V12.2257ZM37.7013 22.2403C37.5641 22.2403 37.4527 22.1327 37.4527 22C37.4527 21.8674 37.5641 21.7599 37.7013 21.7599H39.3213C39.4586 21.7599 39.5699 21.8674 39.5699 22C39.5699 22.1327 39.4586 22.2403 39.3213 22.2403H37.7013ZM33.2186 32.1126C33.1218 32.0202 33.1226 31.8694 33.2202 31.776C33.318 31.6825 33.4755 31.6818 33.5723 31.7743L34.7177 32.8701C34.8144 32.9625 34.8136 33.1133 34.716 33.2067C34.6183 33.3002 34.4607 33.301 34.364 33.2084L33.2186 32.1126Z" fill="#EA81FD"/>
</svg>
