<svg width="50" height="39" viewBox="0 0 50 39" fill="none" xmlns="http://www.w3.org/2000/svg">
<g clip-path="url(#clip0)">
<path d="M49.9998 4.61967C48.6074 6.60833 46.8992 8.30357 44.8752 9.70538C44.8952 10.0813 44.9052 10.5063 44.9052 10.9802C44.9052 13.6133 44.5054 16.2496 43.7058 18.889C42.9062 21.5285 41.6849 24.055 40.0417 26.4684C38.3985 28.8818 36.4412 31.0199 34.1698 32.8827C31.8983 34.7454 29.1679 36.2307 25.9786 37.3384C22.7893 38.4462 19.3712 39 15.7243 39C10.0327 39 4.79134 37.5246 0.000164032 34.5738C0.850541 34.6647 1.66612 34.7101 2.44691 34.7101C7.20175 34.7101 11.4486 33.3038 15.1874 30.4912C12.9704 30.4522 10.985 29.7969 9.23102 28.5253C7.47706 27.2537 6.27002 25.6288 5.60992 23.6507C6.26239 23.7701 6.90636 23.8297 7.54183 23.8297C8.45654 23.8297 9.3566 23.7152 10.242 23.4861C7.87609 23.0311 5.91335 21.8996 4.35381 20.0915C2.79431 18.2835 2.01456 16.1967 2.01456 13.8311V13.7092C3.46678 14.4813 5.01579 14.892 6.66161 14.9413C5.26006 14.0441 4.14883 12.8741 3.32794 11.4313C2.507 9.98856 2.09653 8.42724 2.09653 6.74735C2.09653 4.97563 2.55888 3.32583 3.48358 1.79794C6.05648 4.82972 9.17409 7.25282 12.8364 9.06723C16.4988 10.8817 20.4278 11.8893 24.6235 12.0903C24.4445 11.3742 24.3549 10.6269 24.3545 9.84836C24.3545 7.13016 25.3563 4.80922 27.3598 2.88553C29.3634 0.961844 31.7806 0 34.6113 0C37.5751 0 40.0715 1.03624 42.1005 3.10873C44.4188 2.6678 46.5894 1.87026 48.6125 0.716118C47.8331 3.07146 46.3312 4.88844 44.1069 6.16707C46.1513 5.9338 48.1155 5.418 49.9997 4.61967H49.9998Z" fill="#85D5FF"/>
</g>
<defs>
<clipPath id="clip0">
<rect width="50" height="39" fill="white"/>
</clipPath>
</defs>
</svg>
