<svg width="50" height="50" viewBox="0 0 50 50" fill="none" xmlns="http://www.w3.org/2000/svg">
<g clip-path="url(#clip0)">
<path d="M0 24.1867V24.116C0.627615 15.9123 3.55649 9.75956 8.64714 5.86988C13.6681 1.90948 19.1074 2.31417e-06 25.0349 2.31417e-06C31.2413 -0.0707191 37.0293 2.05092 42.1897 6.29421C47.4198 10.4668 50 16.6903 50 24.7525V25.2475C50 33.3805 47.4198 39.4625 42.1897 43.6351C36.9596 47.8784 31.1715 50 24.9651 50H24.6862C18.6192 49.9293 13.0404 47.8077 7.88006 43.5644C2.71967 39.3918 0.069735 32.9562 0 24.1867ZM23.5007 13.0835V1.90948H21.8271C21.4784 2.33381 21.1994 2.82886 20.9205 3.25319C20.6416 3.67752 20.3626 4.10184 20.0837 4.59689C19.8047 5.02122 19.4561 5.58699 19.2469 6.01132C18.9679 6.43565 18.7587 6.85998 18.5495 7.35503C18.1311 8.06224 17.7824 8.76946 17.5035 9.40595C17.1548 10.0424 16.8759 10.6789 16.6667 11.2447C17.0851 11.5276 17.5732 11.8812 18.1311 12.0934C18.7587 12.3055 19.3863 12.5177 20.0139 12.6591C20.7113 12.8006 21.3389 12.8713 21.8968 12.942C22.5244 13.0127 23.0823 13.0835 23.5007 13.0835ZM26.4296 1.90948V13.0127C26.7782 13.0127 27.1967 13.0835 27.6151 13.0127C28.0335 13.0127 28.5216 12.942 28.94 12.8713C29.7071 12.7299 30.6137 12.5177 31.311 12.3055C32.0781 12.0226 32.7755 11.669 33.2636 11.2447C32.4268 9.19378 31.5202 7.56719 30.6137 6.01132C29.7071 4.45545 28.6611 3.11174 27.5453 1.9802V1.90948H26.4296ZM18.8982 2.54597V2.47525C18.41 2.68742 17.9219 3.04102 17.364 3.25319C16.8759 3.46535 16.2483 3.74824 15.7601 4.03112C14.7838 4.52617 13.8075 5.09194 12.8312 5.72844C11.9247 6.36493 11.0181 7.07214 10.251 7.77936C10.53 8.06224 10.8787 8.34513 11.1576 8.55729C11.4365 8.76946 11.7852 9.05234 12.1339 9.33523C12.4128 9.47667 12.7615 9.68883 13.1102 9.97172C13.4589 10.1839 13.8773 10.4668 14.2957 10.7497C14.8536 9.47667 15.4114 8.13296 16.1088 6.9307C16.8061 5.65771 17.5732 4.45545 18.3403 3.39463C18.41 3.25319 18.4798 3.11174 18.6192 2.9703C18.689 2.89958 18.7587 2.68742 18.8982 2.54597ZM40.2371 7.77936V7.70864C38.4937 6.36493 36.9596 5.23339 35.4254 4.52617C33.8912 3.81896 32.357 3.11174 30.9623 2.54597C32.0781 3.67752 33.0544 5.09194 33.682 6.43565C34.3794 7.85008 35.0767 9.33523 35.6346 10.7497C35.9135 10.6082 36.2622 10.4668 36.6806 10.1839C37.0293 9.97172 37.5174 9.75956 37.9358 9.54739C38.3543 9.26451 38.7029 8.98162 39.1213 8.69874C39.5397 8.34513 39.9582 8.06224 40.2371 7.77936ZM39.0516 23.5502H47.0711C47.0711 20.9335 46.5132 18.4583 45.4672 15.9123C44.4909 13.4371 43.0962 11.3861 41.3529 9.61811V9.54739C41.0042 10.1132 40.516 10.6082 40.0279 10.9618C39.47 11.3154 38.9819 11.5983 38.424 11.8812C38.0753 12.0934 37.7266 12.3762 37.378 12.5177C37.0293 12.7299 36.5411 12.8713 36.1925 13.0835C36.4714 13.6492 36.7503 14.2857 37.0293 14.8515C37.2385 15.488 37.5872 16.1952 37.7266 16.8317C38.145 17.9632 38.424 19.1655 38.7029 20.3678C38.9121 21.4286 39.0516 22.5601 39.0516 23.5502ZM13.8075 13.0835V13.0127C13.2497 12.7299 12.622 12.5177 12.1339 12.2348C11.6457 11.8812 11.1576 11.5276 10.7392 11.2447C10.3208 11.0325 9.90237 10.7497 9.5537 10.4668C9.20502 10.1839 8.92608 9.901 8.64714 9.61811C6.83403 11.3861 5.50907 13.3663 4.67225 15.7002C3.76569 18.034 3.13808 20.6507 2.85914 23.4795H11.4365C11.4365 21.4993 11.7155 19.5898 12.2036 17.6804C12.622 15.7002 13.2497 14.215 13.8075 13.0835ZM23.5007 23.4795V15.3465C22.9428 15.4173 22.2455 15.4173 21.6179 15.3465C20.9205 15.2758 20.2232 15.0637 19.5955 14.8515C19.0377 14.7101 18.3403 14.5686 17.7824 14.3564C17.1548 14.215 16.5272 13.9321 16.0391 13.6492C15.6206 14.3564 15.272 15.2051 14.993 16.1245C14.6444 16.9731 14.4351 17.8925 14.2259 18.7412C14.0865 19.5898 14.0167 20.5092 13.947 21.2871C13.8773 22.0651 13.8075 22.843 13.8075 23.4795H23.5007ZM26.4296 15.488V23.4795H36.7503C36.7503 23.0552 36.7503 22.5601 36.6806 21.9944C36.5411 21.4993 36.4714 20.8628 36.4017 20.297C36.1925 19.4484 35.9833 18.529 35.7043 17.6804C35.4254 16.9024 35.1464 16.1245 34.7978 15.488C34.6583 15.1344 34.5188 14.7101 34.3794 14.4272C34.1702 14.0736 33.9609 13.8614 33.8215 13.6492C33.0544 14.215 32.0084 14.5686 30.7531 14.8515C29.5676 15.1344 28.1729 15.4173 26.9177 15.488H26.4296ZM11.4365 25.8133H2.85914C2.85914 27.0156 3.06834 28.3593 3.41702 29.9859C3.76569 31.6832 4.46304 33.2391 5.23013 34.9364C5.5788 35.785 5.99721 36.6337 6.41562 37.4823C6.90377 38.2603 7.46165 39.1089 8.01953 39.8869C8.43794 39.604 8.85635 39.3918 9.20502 39.1797C9.62343 38.9675 10.1116 38.6846 10.53 38.4724C11.0181 38.2603 11.5063 38.0481 12.0642 37.7652C12.5523 37.5531 13.1799 37.2702 13.8075 36.9873C13.2497 35.2193 12.622 33.5219 12.2036 31.6125C11.7155 29.7737 11.4365 27.935 11.4365 25.884V25.8133ZM23.5007 34.0877V25.8133H13.8075C13.8075 26.3791 13.8773 27.2277 14.0167 28.0764C14.0865 28.9251 14.2957 29.8444 14.4351 30.7638C14.7141 31.7539 14.9233 32.744 15.2022 33.5927C15.4812 34.4413 15.7601 35.1485 16.0391 35.785C17.2943 35.29 18.5495 34.9364 19.3863 34.7242C20.2929 34.4413 21.1297 34.2292 21.9665 34.1584H22.7336C23.0126 34.0877 23.2915 34.0877 23.5007 34.0877ZM26.4296 25.8133V34.017C26.9177 34.0877 27.4756 34.1584 28.0335 34.2292C28.6611 34.2999 29.4282 34.4413 30.0558 34.5828L31.1018 34.7949C31.4505 34.9364 31.8689 35.0071 32.2176 35.0778C32.636 35.2193 33.0544 35.29 33.4728 35.4314C33.8215 35.5729 34.1702 35.6436 34.4491 35.785C35.3556 33.4512 35.9135 31.5417 36.2622 29.9152C36.6109 28.3593 36.7503 27.0156 36.7503 25.884V25.8133H26.4296ZM47.0711 25.884V25.8133H39.0516V26.2376C38.9819 27.5813 38.7727 29.1372 38.4937 30.7638C38.2148 32.3197 37.5872 34.1584 36.7503 36.4215C37.8661 36.9873 38.9121 37.5531 39.749 38.1188C40.5858 38.6846 41.3529 39.3211 41.9107 39.8869C43.0962 38.6846 44.1423 37.058 45.0488 34.9364C45.9554 32.8855 46.583 30.7638 46.9317 28.5007C47.0014 28.0764 47.0014 27.6521 47.0711 27.2277V25.884ZM23.5007 47.3833V36.3508C21.7573 36.6337 20.2929 36.9873 19.1771 37.2702C18.0614 37.5531 17.2245 37.836 16.6667 38.1188C17.0851 39.1797 17.5035 40.099 17.9219 40.9477C18.3403 41.7256 18.8285 42.5743 19.2469 43.2815C19.3863 43.5644 19.6653 43.8473 19.8745 44.2009C20.0837 44.4838 20.2232 44.8374 20.4324 45.1203C20.6416 45.4739 20.8508 45.8982 21.06 46.3225C21.3389 46.6761 21.5481 47.1005 21.8271 47.3833H23.5007ZM26.4296 47.3833H28.0335C28.6611 46.8883 29.2887 46.1811 29.7768 45.4031C30.3347 44.6252 30.9623 43.7058 31.3808 42.9279C31.8689 42.0085 32.357 41.1599 32.7755 40.3112C33.1939 39.4625 33.5425 38.6846 33.8215 38.1188C33.0544 37.836 32.0084 37.5531 30.9623 37.2702C29.9163 36.9873 28.4519 36.7044 26.4296 36.4215V47.3833ZM40.2371 41.5842V41.5135C40.0976 41.3013 39.8187 41.0184 39.6095 40.8062C39.4003 40.5941 39.0516 40.3112 38.7029 40.099C38.424 39.8869 38.0753 39.6747 37.6569 39.4625C37.2385 39.2504 36.6806 38.9675 36.1925 38.6846C35.9135 39.2504 35.4254 40.2405 34.728 41.5842C34.1004 42.9279 32.9847 44.5545 31.59 46.3225C33.3333 46.0396 34.8675 45.4031 36.2622 44.5545C37.7964 43.7765 39.1213 42.7157 40.2371 41.5842ZM14.2957 39.3211V39.2504C13.8075 39.5333 13.0404 39.8869 12.2734 40.2405C11.4365 40.5941 10.53 41.0184 9.69317 41.5842C10.1813 42.0085 10.6695 42.4328 11.0879 42.7157C11.5063 43.0693 11.9944 43.3522 12.4128 43.6351C13.1799 44.1302 14.0865 44.6252 14.993 45.0495C15.8996 45.4739 17.0153 45.8982 18.41 46.3225C17.9219 45.7567 17.5732 45.0495 17.2245 44.4838C16.8759 43.918 16.4575 43.3522 16.1088 42.7864C15.7601 42.2207 15.4812 41.5842 15.2022 41.0184C14.8536 40.4526 14.5746 39.8869 14.2957 39.3211Z" fill="#85D5FF"/>
</g>
<defs>
<clipPath id="clip0">
<rect width="50" height="50" fill="white"/>
</clipPath>
</defs>
</svg>
